<svg width="42" height="45" viewBox="0 0 42 45" fill="none" xmlns="http://www.w3.org/2000/svg">
<path d="M8.40006 0H36.4C37.8852 0 39.3096 0.589998 40.3598 1.6402C41.41 2.6904 42 4.11478 42 5.59999V39.1999C42 40.6852 41.41 42.1095 40.3598 43.1597C39.3096 44.2099 37.8852 44.7999 36.4 44.7999H8.40006C6.91485 44.7999 5.49047 44.2099 4.44026 43.1597C3.39006 42.1095 2.80006 40.6852 2.80006 39.1999V36.3999H5.60006V39.1999C5.60006 39.9425 5.89506 40.6547 6.42016 41.1798C6.94526 41.7049 7.65745 41.9999 8.40006 41.9999H36.4C37.1426 41.9999 37.8548 41.7049 38.3799 41.1798C38.905 40.6547 39.2 39.9425 39.2 39.1999V5.59999C39.2 4.85739 38.905 4.1452 38.3799 3.6201C37.8548 3.09499 37.1426 2.8 36.4 2.8H22.4H8.40006C7.65745 2.8 6.94526 3.09499 6.42016 3.6201C5.89506 4.1452 5.60006 4.85739 5.60006 5.59999V8.39999H2.80006V5.59999C2.80006 4.11478 3.39006 2.6904 4.44026 1.6402C5.49047 0.589998 6.91485 0 8.40006 0Z" fill="#373737"/>
<path d="M2.8 13.9999V12.5999C2.8 12.2286 2.94749 11.8726 3.21005 11.61C3.4726 11.3475 3.82869 11.2 4.19999 11.2C4.5713 11.2 4.92739 11.3475 5.18994 11.61C5.45249 11.8726 5.59999 12.2286 5.59999 12.5999V13.9999H6.99999C7.37129 13.9999 7.72739 14.1474 7.98994 14.41C8.25249 14.6725 8.39999 15.0286 8.39999 15.3999C8.39999 15.7712 8.25249 16.1273 7.98994 16.3899C7.72739 16.6524 7.37129 16.7999 6.99999 16.7999H1.4C1.0287 16.7999 0.6726 16.6524 0.41005 16.3899C0.147499 16.1273 0 15.7712 0 15.3999C0 15.0286 0.147499 14.6725 0.41005 14.41C0.6726 14.1474 1.0287 13.9999 1.4 13.9999H2.8ZM2.8 22.3999V20.9999C2.8 20.6286 2.94749 20.2725 3.21005 20.01C3.4726 19.7474 3.82869 19.5999 4.19999 19.5999C4.5713 19.5999 4.92739 19.7474 5.18994 20.01C5.45249 20.2725 5.59999 20.6286 5.59999 20.9999V22.3999H6.99999C7.37129 22.3999 7.72739 22.5474 7.98994 22.81C8.25249 23.0725 8.39999 23.4286 8.39999 23.7999C8.39999 24.1712 8.25249 24.5273 7.98994 24.7899C7.72739 25.0524 7.37129 25.1999 6.99999 25.1999H1.4C1.0287 25.1999 0.6726 25.0524 0.41005 24.7899C0.147499 24.5273 0 24.1712 0 23.7999C0 23.4286 0.147499 23.0725 0.41005 22.81C0.6726 22.5474 1.0287 22.3999 1.4 22.3999H2.8ZM2.8 30.7999V29.3999C2.8 29.0286 2.94749 28.6725 3.21005 28.41C3.4726 28.1474 3.82869 27.9999 4.19999 27.9999C4.5713 27.9999 4.92739 28.1474 5.18994 28.41C5.45249 28.6725 5.59999 29.0286 5.59999 29.3999V30.7999H6.99999C7.37129 30.7999 7.72739 30.9474 7.98994 31.21C8.25249 31.4725 8.39999 31.8286 8.39999 32.1999C8.39999 32.5712 8.25249 32.9273 7.98994 33.1899C7.72739 33.4524 7.37129 33.5999 6.99999 33.5999H1.4C1.0287 33.5999 0.6726 33.4524 0.41005 33.1899C0.147499 32.9273 0 32.5712 0 32.1999C0 31.8286 0.147499 31.4725 0.41005 31.21C0.6726 30.9474 1.0287 30.7999 1.4 30.7999H2.8Z" fill="#373737"/>
<path d="M17.4682 27.7684H31.325C31.4387 27.7684 31.5318 27.6747 31.5318 27.5601V16.2097C31.5318 16.0223 31.3069 15.9312 31.1776 16.0613L25.7409 21.5361L22.499 18.308C22.4602 18.2692 22.4077 18.2475 22.353 18.2475C22.2983 18.2475 22.2458 18.2692 22.2069 18.308L17.3208 23.2438C17.3019 23.263 17.2868 23.2857 17.2766 23.3107C17.2664 23.3358 17.2612 23.3626 17.2614 23.3896V27.5601C17.2614 27.6747 17.3544 27.7684 17.4682 27.7684Z" fill="#373737"/>
<path d="M14 14V29C14 30.1046 14.8954 31 16 31H32" stroke="#373737" stroke-width="2.5" stroke-linecap="round"/>
</svg>
