<svg width="23" height="23" viewBox="0 0 23 23" fill="none" xmlns="http://www.w3.org/2000/svg">
<path d="M3.78196 1.27783C3.61251 1.27783 3.45001 1.34514 3.33019 1.46496C3.21038 1.58477 3.14307 1.74728 3.14307 1.91672V21.0834C3.14307 21.2528 3.21038 21.4153 3.33019 21.5352C3.45001 21.655 3.61251 21.7223 3.78196 21.7223C3.9514 21.7223 4.1139 21.655 4.23372 21.5352C4.35353 21.4153 4.42084 21.2528 4.42084 21.0834V1.91672C4.42084 1.74728 4.35353 1.58477 4.23372 1.46496C4.1139 1.34514 3.9514 1.27783 3.78196 1.27783Z" fill="black"/>
<path d="M19.4864 2.44061C19.3892 2.38454 19.2791 2.35501 19.1669 2.35501C19.0548 2.35501 18.9446 2.38454 18.8475 2.44061C17.6089 2.96125 16.2742 3.21382 14.9311 3.18172C13.7739 3.09705 12.6469 2.77289 11.6216 2.22978C10.6355 1.69701 9.55034 1.37297 8.43358 1.27783C7.51194 1.27884 6.59974 1.46345 5.75024 1.82089V12.7778C6.58261 12.3224 7.51671 12.085 8.46552 12.0878C9.40509 12.181 10.317 12.459 11.1489 12.9056C12.3373 13.5262 13.6438 13.8877 14.9822 13.9662C16.5184 13.9981 18.0436 13.6996 19.4544 13.0909C19.5598 13.0378 19.6484 12.9566 19.7104 12.8562C19.7724 12.7558 19.8054 12.6403 19.8058 12.5223V2.98367C19.804 2.87326 19.7737 2.7652 19.7177 2.67002C19.6617 2.57485 19.582 2.49581 19.4864 2.44061Z" fill="black"/>
</svg>
