<svg width="20" height="15" viewBox="0 0 20 15" fill="none" xmlns="http://www.w3.org/2000/svg">
<path d="M1 10.75L5.76215 6.27887C5.95501 6.09779 6.18397 5.95415 6.43596 5.85615C6.68795 5.75816 6.95802 5.70772 7.23077 5.70772C7.50352 5.70772 7.77359 5.75816 8.02558 5.85615C8.27756 5.95415 8.50652 6.09779 8.69938 6.27887L13.4615 10.75M12.0769 9.45L13.3775 8.22887C13.5704 8.04779 13.7994 7.90415 14.0513 7.80615C14.3033 7.70816 14.5734 7.65772 14.8462 7.65772C15.1189 7.65772 15.389 7.70816 15.641 7.80615C15.8929 7.90415 16.1219 8.04779 16.3148 8.22887L19 10.75M2.38462 14H17.6154C17.9826 14 18.3348 13.863 18.5945 13.6192C18.8541 13.3754 19 13.0448 19 12.7V2.3C19 1.95522 18.8541 1.62456 18.5945 1.38076C18.3348 1.13696 17.9826 1 17.6154 1H2.38462C2.01739 1 1.66521 1.13696 1.40554 1.38076C1.14588 1.62456 1 1.95522 1 2.3V12.7C1 13.0448 1.14588 13.3754 1.40554 13.6192C1.66521 13.863 2.01739 14 2.38462 14ZM12.0769 4.25H12.0843V4.25693H12.0769V4.25ZM12.4231 4.25C12.4231 4.3362 12.3866 4.41886 12.3217 4.47981C12.2568 4.54076 12.1687 4.575 12.0769 4.575C11.9851 4.575 11.8971 4.54076 11.8322 4.47981C11.7672 4.41886 11.7308 4.3362 11.7308 4.25C11.7308 4.1638 11.7672 4.08114 11.8322 4.02019C11.8971 3.95924 11.9851 3.925 12.0769 3.925C12.1687 3.925 12.2568 3.95924 12.3217 4.02019C12.3866 4.08114 12.4231 4.1638 12.4231 4.25V4.25Z" stroke="black" stroke-width="1.5" stroke-linecap="round" stroke-linejoin="round"/>
</svg>
