<svg width="50" height="40" viewBox="0 0 50 40" fill="none" xmlns="http://www.w3.org/2000/svg">
<path d="M15.663 19.3939C18.2194 19.3939 20.6711 18.3723 22.4787 16.5538C24.2863 14.7352 25.3018 12.2688 25.3018 9.69697C25.3018 7.12517 24.2863 4.65871 22.4787 2.84018C20.6711 1.02164 18.2194 0 15.663 0C13.1067 0 10.655 1.02164 8.84738 2.84018C7.03975 4.65871 6.02424 7.12517 6.02424 9.69697C6.02424 12.2688 7.03975 14.7352 8.84738 16.5538C10.655 18.3723 13.1067 19.3939 15.663 19.3939ZM37.3503 19.3939C39.2676 19.3939 41.1063 18.6277 42.462 17.2638C43.8178 15.8999 44.5794 14.0501 44.5794 12.1212C44.5794 10.1924 43.8178 8.34252 42.462 6.97862C41.1063 5.61472 39.2676 4.84848 37.3503 4.84848C35.433 4.84848 33.5943 5.61472 32.2386 6.97862C30.8828 8.34252 30.1212 10.1924 30.1212 12.1212C30.1212 14.0501 30.8828 15.8999 32.2386 17.2638C33.5943 18.6277 35.433 19.3939 37.3503 19.3939ZM4.51818 23.0303C3.31989 23.0303 2.17067 23.5092 1.32334 24.3616C0.476021 25.2141 0 26.3702 0 27.5758V29.0909C0 29.0909 0 40 15.663 40C31.3261 40 31.3261 29.0909 31.3261 29.0909V27.5758C31.3261 26.3702 30.85 25.2141 30.0027 24.3616C29.1554 23.5092 28.0062 23.0303 26.8079 23.0303H4.51818ZM30.9333 36.4715C32.5911 37.1479 34.6912 37.5758 37.3491 37.5758C50 37.5758 50 27.8788 50 27.8788V27.5758C50 26.3704 49.5241 25.2145 48.6771 24.3621C47.83 23.5097 46.6811 23.0306 45.483 23.0303H32.0574C33.1408 24.2936 33.7357 25.9072 33.7333 27.5758V29.1455L33.7321 29.2145C33.7251 29.4498 33.709 29.6847 33.6839 29.9188C33.6242 30.4599 33.5272 30.9961 33.3936 31.5236C32.9373 33.332 32.0981 35.0198 30.9333 36.4715Z" fill="#373737"/>
</svg>
