<svg width="20" height="20" viewBox="0 0 20 20" fill="none" xmlns="http://www.w3.org/2000/svg">
<path fill-rule="evenodd" clip-rule="evenodd" d="M3.68804 13.3239C3.74345 13.25 3.8153 13.19 3.8979 13.1487C3.98049 13.1074 4.07157 13.0859 4.16392 13.0859H7.13815C7.29591 13.0859 7.44721 13.1486 7.55877 13.2602C7.67032 13.3717 7.73299 13.523 7.73299 13.6808C7.73299 13.8385 7.67032 13.9898 7.55877 14.1014C7.44721 14.213 7.29591 14.2756 7.13815 14.2756H4.46134L1.78454 17.8447H17.2505L14.5737 14.2756H11.8969C11.7392 14.2756 11.5878 14.213 11.4763 14.1014C11.3647 13.9898 11.3021 13.8385 11.3021 13.6808C11.3021 13.523 11.3647 13.3717 11.4763 13.2602C11.5878 13.1486 11.7392 13.0859 11.8969 13.0859H14.8711C14.9635 13.0859 15.0546 13.1074 15.1372 13.1487C15.2198 13.19 15.2916 13.25 15.347 13.3239L18.9161 18.0826C18.9824 18.171 19.0227 18.2761 19.0327 18.3861C19.0426 18.4962 19.0217 18.6068 18.9723 18.7056C18.9229 18.8044 18.8469 18.8875 18.7529 18.9456C18.659 19.0036 18.5507 19.0344 18.4402 19.0344H0.594846C0.484376 19.0344 0.376088 19.0036 0.282117 18.9456C0.188146 18.8875 0.112203 18.8044 0.0627998 18.7056C0.0133962 18.6068 -0.00751695 18.4962 0.00240387 18.3861C0.0123247 18.2761 0.0526875 18.171 0.118969 18.0826L3.68804 13.3239Z" fill="#959595"/>
<path fill-rule="evenodd" clip-rule="evenodd" d="M4.75879 4.75832C4.75888 3.84253 5.02321 2.94621 5.52007 2.17692C6.01693 1.40763 6.72521 0.798046 7.55992 0.421313C8.39464 0.0445787 9.32033 -0.0833003 10.2259 0.0530198C11.1315 0.18934 11.9785 0.584068 12.6653 1.18984C13.3522 1.79561 13.8496 2.5867 14.098 3.46817C14.3463 4.34964 14.3351 5.28405 14.0656 6.15929C13.796 7.03452 13.2797 7.8134 12.5785 8.40246C11.8773 8.99152 11.021 9.36574 10.1124 9.48021V16.0604C10.1124 16.2182 10.0497 16.3695 9.93818 16.481C9.82662 16.5926 9.67532 16.6552 9.51756 16.6552C9.35979 16.6552 9.20849 16.5926 9.09694 16.481C8.98538 16.3695 8.92271 16.2182 8.92271 16.0604V9.4814C7.77224 9.33645 6.71427 8.77643 5.94755 7.90653C5.18082 7.03662 4.7581 5.9167 4.75879 4.75713V4.75832Z" fill="#959595"/>
</svg>
