<svg width="43" height="43" viewBox="0 0 43 43" fill="none" xmlns="http://www.w3.org/2000/svg">
<path d="M21.5 1C10.1779 1 1 10.1779 1 21.5C1 32.8221 10.1779 42 21.5 42C32.8221 42 42 32.8221 42 21.5C42 10.1779 32.8221 1 21.5 1Z" stroke="#373737" stroke-width="2" stroke-linecap="round" stroke-linejoin="round"/>
<path d="M5.65553 34.5093C5.65553 34.5093 10.225 28.675 21.5 28.675C32.775 28.675 37.3465 34.5093 37.3465 34.5093M21.5 21.5C23.1311 21.5 24.6953 20.852 25.8487 19.6987C27.002 18.5453 27.65 16.981 27.65 15.35C27.65 13.7189 27.002 12.1546 25.8487 11.0012C24.6953 9.8479 23.1311 9.19995 21.5 9.19995C19.8689 9.19995 18.3046 9.8479 17.1513 11.0012C15.9979 12.1546 15.35 13.7189 15.35 15.35C15.35 16.981 15.9979 18.5453 17.1513 19.6987C18.3046 20.852 19.8689 21.5 21.5 21.5Z" stroke="#373737" stroke-width="2" stroke-linecap="round" stroke-linejoin="round"/>
</svg>
