<svg width="16" height="22" viewBox="0 0 16 22" fill="none" xmlns="http://www.w3.org/2000/svg">
<path d="M7.45027 20.6807C5.41831 18.0946 0.898956 11.8266 0.898956 8.30583C0.898956 4.03424 4.24507 0.571533 8.37282 0.571533C12.499 0.571533 15.8467 4.03424 15.8467 8.30583C15.8467 11.8266 11.2923 18.0946 9.29538 20.6807C8.81658 21.297 7.92906 21.297 7.45027 20.6807V20.6807ZM8.37282 10.8839C9.74693 10.8839 10.8641 9.72782 10.8641 8.30583C10.8641 6.88385 9.74693 5.72773 8.37282 5.72773C6.99872 5.72773 5.88153 6.88385 5.88153 8.30583C5.88153 9.72782 6.99872 10.8839 8.37282 10.8839Z" fill="#6B30A4"/>
</svg>
