<svg width="18" height="18" viewBox="0 0 18 18" fill="none" xmlns="http://www.w3.org/2000/svg">
<path d="M11 18C10.7167 18 10.4793 17.904 10.288 17.712C10.096 17.5207 10 17.2833 10 17C10 16.7167 10.096 16.4793 10.288 16.288C10.4793 16.096 10.7167 16 11 16C11.7833 16 12.479 15.846 13.087 15.538C13.6957 15.2293 14 14.8833 14 14.5C14 14.2667 13.8917 14.05 13.675 13.85C13.4583 13.65 13.1583 13.4667 12.775 13.3L14.25 11.825C14.7833 12.1417 15.2083 12.5167 15.525 12.95C15.8417 13.3833 16 13.9 16 14.5C16 15.6 15.475 16.4583 14.425 17.075C13.375 17.6917 12.2333 18 11 18ZM1.575 10.35C1.09167 10.0667 0.708333 9.73733 0.425 9.362C0.141667 8.98733 0 8.53333 0 8C0 7.3 0.258333 6.71233 0.775 6.237C1.29167 5.76233 2.21667 5.23333 3.55 4.65C4.6 4.16667 5.27067 3.829 5.562 3.637C5.854 3.44567 6 3.23333 6 3C6 2.73333 5.83733 2.5 5.512 2.3C5.18733 2.1 4.68333 2 4 2C3.58333 2 3.23333 2.05 2.95 2.15C2.66667 2.25 2.40833 2.41667 2.175 2.65C1.99167 2.83333 1.76667 2.94167 1.5 2.975C1.23333 3.00833 0.991667 2.93333 0.775 2.75C0.558333 2.58333 0.433333 2.36667 0.4 2.1C0.366667 1.83333 0.441667 1.59167 0.625 1.375C0.941667 0.991667 1.396 0.666667 1.988 0.4C2.57933 0.133333 3.25 0 4 0C5.2 0 6.16667 0.270667 6.9 0.812C7.63333 1.354 8 2.08333 8 3C8 3.65 7.75833 4.23333 7.275 4.75C6.79167 5.26667 5.81667 5.84167 4.35 6.475C3.38333 6.89167 2.75 7.2 2.45 7.4C2.15 7.6 2 7.8 2 8C2 8.15 2.09567 8.296 2.287 8.438C2.479 8.57933 2.74167 8.71667 3.075 8.85L1.575 10.35ZM15.85 7.4L11.6 3.15L12.65 2.1C13.05 1.7 13.529 1.5 14.087 1.5C14.6457 1.5 15.1167 1.7 15.5 2.1L16.9 3.5C17.3 3.88333 17.5 4.354 17.5 4.912C17.5 5.47067 17.3 5.95 16.9 6.35L15.85 7.4ZM1.5 18C1.36667 18 1.25 17.95 1.15 17.85C1.05 17.75 1 17.6333 1 17.5V13.95C1 13.9167 1.05 13.8 1.15 13.6L10.2 4.55L14.45 8.8L5.4 17.85C5.36667 17.8833 5.25 17.9333 5.05 18H1.5Z" fill="#E15C45"/>
</svg>
