<svg width="351" height="167" viewBox="0 0 351 167" fill="none" xmlns="http://www.w3.org/2000/svg">
<path d="M65.5737 59.5234H81.2896C83.8713 59.5234 86.0519 58.6587 87.8315 56.9292C89.6362 55.1746 90.5386 52.7057 90.5386 49.5225C90.5386 47.1413 89.5986 45.0107 87.7188 43.1309C85.8389 41.2259 83.6958 40.2734 81.2896 40.2734H58.0542V89H55.3472V37.5664H81.2896C84.4478 37.5664 87.23 38.7821 89.6362 41.2134C92.0425 43.6447 93.2456 46.4144 93.2456 49.5225C93.2456 53.3574 92.0801 56.4404 89.749 58.7715C87.418 61.0775 84.5981 62.2305 81.2896 62.2305H65.5737V59.5234ZM65.5737 64.9375H81.2896C83.8963 64.9375 86.3026 64.3109 88.5083 63.0576C90.7391 61.7793 92.5312 59.9495 93.8848 57.5684C95.2633 55.1872 95.9526 52.5052 95.9526 49.5225C95.9526 45.6624 94.4738 42.2536 91.5161 39.2959C88.5835 36.3382 85.1746 34.8594 81.2896 34.8594H52.6401V89H49.9331V32.1523H81.2896C84.3224 32.1523 87.1799 32.9544 89.8618 34.5586C92.5438 36.1628 94.6743 38.3058 96.2534 40.9878C97.8576 43.6698 98.6597 46.5146 98.6597 49.5225C98.6597 52.9313 97.8576 56.0394 96.2534 58.8467C94.6493 61.6289 92.5187 63.797 89.8618 65.3511C87.23 66.88 84.3726 67.6445 81.2896 67.6445H65.5737V64.9375ZM65.5737 70.3516H81.2896C83.9715 70.3516 86.5407 69.8252 88.9971 68.7725C91.4535 67.6947 93.584 66.2534 95.3887 64.4487C97.2184 62.619 98.6722 60.4132 99.75 57.8315C100.828 55.2248 101.367 52.4551 101.367 49.5225C101.367 46.0133 100.452 42.7173 98.6221 39.6343C96.7923 36.5262 94.3234 34.0573 91.2153 32.2275C88.1323 30.3727 84.8237 29.4453 81.2896 29.4453H47.2261V89H44.519V26.7383H81.2896C85.3 26.7383 89.0597 27.791 92.5688 29.8965C96.078 31.9769 98.8727 34.7716 100.953 38.2808C103.034 41.7899 104.074 45.5371 104.074 49.5225C104.074 53.0817 103.46 56.3652 102.231 59.373C101.003 62.3558 99.349 64.8372 97.2686 66.8174C95.1882 68.7975 92.7694 70.339 90.0122 71.4419C87.255 72.5197 84.3475 73.0586 81.2896 73.0586H65.5737V70.3516ZM63.4683 89H60.7612V42.9805H81.2896C83.0692 42.9805 84.5981 43.6322 85.8765 44.9355C87.1799 46.2389 87.8315 47.7679 87.8315 49.5225C87.8315 54.3851 85.6509 56.8164 81.2896 56.8164H65.5737V54.1094H81.2896C82.4927 54.1094 83.4326 53.771 84.1094 53.0942C84.7861 52.4175 85.1245 51.2269 85.1245 49.5225C85.1245 48.4196 84.7485 47.5047 83.9966 46.7778C83.2697 46.0509 82.3674 45.6875 81.2896 45.6875H63.4683V89ZM110.014 26.7383H112.721V89H110.014V26.7383ZM126.256 26.7383H128.963V75.4648H150.62V78.1719H128.963V80.8789H150.62V83.5859H128.963V86.293H150.62V89H126.256V26.7383ZM120.842 26.7383H123.549V89H120.842V26.7383ZM115.428 26.7383H118.135V89H115.428V26.7383ZM183.518 70.7275L184.608 68.0205H193.857L194.947 70.7275H183.518ZM181.412 76.1416L182.465 73.4346H195.962L197.128 76.1416H181.412ZM179.307 81.5557L180.359 78.8486H198.105L199.233 81.5557H179.307ZM157.312 89H154.379L179.006 26.7383H181.938L206.527 89H203.632L180.472 30.3853L157.312 89ZM180.811 36.8145L182.352 40.2734L163.102 89H160.207L180.811 36.8145ZM183.818 43.958L185.247 47.6802L168.967 89H166.035L183.818 43.958ZM186.676 51.4023L188.104 55.1997L174.757 89H171.862L186.676 51.4023ZM224.01 89H221.078L196.489 26.7383H199.384L224.01 89ZM193.556 26.7383L218.183 89H215.288L190.661 26.7383H193.556ZM187.729 26.7383L212.355 89H209.422L184.833 26.7383H187.729ZM249.577 57.6812L248.223 60.6514L231.981 26.7383H234.688L249.577 57.6812ZM252.284 51.7407L250.893 54.7109L237.395 26.7383H240.102L252.284 51.7407ZM254.991 45.8379L253.637 48.8081L242.809 26.7383H245.516L254.991 45.8379ZM251.569 68.0205L271.158 26.7383H273.865L254.276 68.0205V89H251.569V68.0205ZM256.983 68.0205L276.572 26.7383H279.279L259.69 68.0205V89H256.983V68.0205ZM262.397 68.0205L281.986 26.7383H284.693L265.104 68.0205V89H262.397V68.0205ZM247.509 65.1631L265.744 26.7383H268.451L248.862 68.0205V89H246.155V68.0205L226.567 26.7383H229.274L247.509 65.1631ZM309.958 58.0195H326.276C328.757 58.0195 330.85 57.2174 332.555 55.6133C334.284 54.0091 335.149 51.7282 335.149 48.7705C335.149 46.5898 334.247 44.6348 332.442 42.9053C330.637 41.1507 328.582 40.2734 326.276 40.2734H303.041V89H300.333V37.5664H326.276C329.334 37.5664 332.028 38.7069 334.359 40.9878C336.69 43.2437 337.856 45.8379 337.856 48.7705C337.856 52.3799 336.728 55.2749 334.472 57.4556C332.216 59.6362 329.484 60.7266 326.276 60.7266H309.958V58.0195ZM309.958 63.4336H326.276C330.186 63.4336 333.545 62.0675 336.352 59.3354C339.159 56.5783 340.563 53.0566 340.563 48.7705C340.563 45.0859 339.122 41.8525 336.239 39.0703C333.382 36.263 330.061 34.8594 326.276 34.8594H297.626V89H294.919V32.1523H326.276C329.259 32.1523 332.053 32.9168 334.66 34.4458C337.292 35.9748 339.385 38.0301 340.939 40.6118C342.493 43.1685 343.27 45.888 343.27 48.7705C343.27 53.7083 341.591 57.8441 338.232 61.1777C334.898 64.4863 330.913 66.1406 326.276 66.1406H309.958V63.4336ZM309.958 68.8477H326.276C329.785 68.8477 333.043 67.9829 336.051 66.2534C339.059 64.5239 341.465 62.1177 343.27 59.0347C345.075 55.9266 345.977 52.5052 345.977 48.7705C345.977 45.3867 345.075 42.216 343.27 39.2583C341.49 36.2756 339.084 33.8944 336.051 32.1147C333.018 30.3351 329.76 29.4453 326.276 29.4453H292.212V89H289.505V26.7383H326.276C330.211 26.7383 333.908 27.7534 337.367 29.7837C340.826 31.7889 343.571 34.4959 345.601 37.9048C347.656 41.2886 348.684 44.9105 348.684 48.7705C348.684 53.2321 347.719 57.1548 345.789 60.5386C343.884 63.9224 341.29 66.5667 338.006 68.4717L345 89H342.142L335.45 69.75C334.447 70.151 333.683 70.4268 333.156 70.5771L339.435 89H336.578L330.449 71.2163C330.224 71.2664 329.422 71.3542 328.043 71.4795L333.871 89H331.013L325.261 71.5547H322.817L328.306 89H325.449L319.922 71.5547H309.958V68.8477ZM308.455 89H305.748V42.9805H326.276C327.955 42.9805 329.396 43.557 330.6 44.71C331.828 45.8379 332.442 47.1914 332.442 48.7705C332.442 53.1318 330.387 55.3125 326.276 55.3125H309.958V52.6055H326.276C327.354 52.6055 328.193 52.3298 328.795 51.7783C329.422 51.2018 329.735 50.1992 329.735 48.7705C329.735 47.8932 329.396 47.1663 328.72 46.5898C328.068 45.9883 327.253 45.6875 326.276 45.6875H308.455V89Z" fill="black"/>
<path d="M48.2871 125.979L46.1777 122.141V100.812H48.2871V125.979ZM52.5059 133.273L50.3965 129.699V100.812H52.5059V133.273ZM23.4434 117.834L25.5527 121.672V143H23.4434V117.834ZM19.2246 110.246L21.334 114.113V143H19.2246V110.246ZM19.957 100.812H22.418L46.8516 143H44.3906L19.957 100.812ZM24.9375 100.812H27.4277L51.832 143H49.3125L24.9375 100.812ZM29.8887 100.812H32.3496L54.6152 139.338V100.812H56.7246V143H54.2344L29.8887 100.812ZM17.1152 104.445V143H15.0059V100.812H17.5254L41.8711 143H39.4395L17.1152 104.445ZM72.7793 143H70.6699V100.812H72.7793V143ZM68.5605 143H66.4512V100.812H68.5605V143ZM64.3418 143H62.2324V100.812H64.3418V143ZM76.998 132.453H97.1836V134.562H76.998V136.672H97.1836V138.781H76.998V140.891H97.1836V143H74.8887V100.812H97.1836V102.922H76.998V105.031H97.1836V107.141H76.998V109.25H97.1836V111.359H76.998V116.604H96.0117V118.713H76.998V120.822H96.0117V122.932H76.998V125.041H96.0117V127.15H76.998V132.453ZM109.723 112.502H111.832V143H109.723V112.502ZM101.285 102.922V100.812H132.926V102.922H101.285ZM101.285 107.141V105.031H132.926V107.141H101.285ZM101.285 111.359V109.25H132.926V111.359H101.285ZM122.379 112.502H124.488V143H122.379V112.502ZM118.16 112.502H120.27V143H118.16V112.502ZM113.941 112.502H116.051V143H113.941V112.502ZM179.186 129.436C179.596 129.455 180.094 129.465 180.68 129.465C181.266 129.465 181.754 129.455 182.145 129.436C182.555 129.396 182.975 129.318 183.404 129.201C183.834 129.064 184.176 128.889 184.43 128.674C184.684 128.459 184.889 128.156 185.045 127.766C185.221 127.355 185.309 126.867 185.309 126.301V100.812H187.418V126.301C187.418 129.816 185.172 131.574 180.68 131.574C178.414 131.574 176.734 131.145 175.641 130.285C175.484 131.047 175.299 131.721 175.084 132.307C176.568 133.225 178.434 133.684 180.68 133.684C183.297 133.684 185.426 133.078 187.066 131.867C188.707 130.637 189.527 128.781 189.527 126.301V100.812H191.637V126.301C191.637 129.367 190.602 131.721 188.531 133.361C186.48 134.982 183.863 135.793 180.68 135.793C178.199 135.793 176.07 135.285 174.293 134.27C174 134.895 173.658 135.49 173.268 136.057C175.396 137.287 177.867 137.902 180.68 137.902C182.496 137.902 184.186 137.648 185.748 137.141C187.33 136.633 188.717 135.9 189.908 134.943C191.1 133.986 192.037 132.766 192.721 131.281C193.404 129.797 193.746 128.137 193.746 126.301V100.812H195.855V126.301C195.855 129.113 195.162 131.574 193.775 133.684C192.408 135.793 190.582 137.375 188.297 138.43C186.031 139.484 183.492 140.012 180.68 140.012C177.398 140.012 174.508 139.26 172.008 137.756C171.461 138.381 170.963 138.889 170.514 139.279C173.424 141.174 176.812 142.121 180.68 142.121C183.863 142.121 186.754 141.496 189.352 140.246C191.949 138.996 194.029 137.16 195.592 134.738C197.174 132.297 197.965 129.484 197.965 126.301V100.812H200.074V126.301C200.074 128.996 199.557 131.477 198.521 133.742C197.506 136.008 196.119 137.902 194.361 139.426C192.623 140.949 190.572 142.131 188.209 142.971C185.846 143.811 183.336 144.23 180.68 144.23C176.031 144.23 172.057 143.039 168.756 140.656C165.338 143.039 161.305 144.23 156.656 144.23C154 144.23 151.49 143.811 149.127 142.971C146.764 142.131 144.703 140.949 142.945 139.426C141.207 137.902 139.82 136.008 138.785 133.742C137.77 131.477 137.262 128.996 137.262 126.301V100.812H139.371V126.301C139.371 128.703 139.82 130.91 140.719 132.922C141.637 134.934 142.877 136.604 144.439 137.932C146.002 139.26 147.828 140.295 149.918 141.037C152.027 141.76 154.273 142.121 156.656 142.121C159.762 142.121 162.643 141.418 165.299 140.012C167.955 138.586 170.055 136.662 171.598 134.24C173.16 131.799 173.941 129.152 173.941 126.301V100.812H176.051V126.301C176.051 126.867 176.129 127.355 176.285 127.766C176.461 128.156 176.676 128.459 176.93 128.674C177.184 128.889 177.525 129.064 177.955 129.201C178.385 129.318 178.795 129.396 179.186 129.436ZM163.395 100.812V126.301C163.395 129.816 161.148 131.574 156.656 131.574C152.164 131.574 149.918 129.816 149.918 126.301V100.812H152.027V126.301C152.027 126.867 152.105 127.355 152.262 127.766C152.438 128.156 152.652 128.459 152.906 128.674C153.16 128.889 153.502 129.064 153.932 129.201C154.361 129.318 154.771 129.396 155.162 129.436C155.572 129.455 156.07 129.465 156.656 129.465C157.242 129.465 157.73 129.455 158.121 129.436C158.531 129.396 158.951 129.318 159.381 129.201C159.811 129.064 160.152 128.889 160.406 128.674C160.66 128.459 160.865 128.156 161.021 127.766C161.197 127.355 161.285 126.867 161.285 126.301V100.812H163.395ZM167.613 100.812V126.301C167.613 129.367 166.578 131.721 164.508 133.361C162.457 134.982 159.84 135.793 156.656 135.793C153.473 135.793 150.846 134.982 148.775 133.361C146.725 131.721 145.699 129.367 145.699 126.301V100.812H147.809V126.301C147.809 128.781 148.629 130.637 150.27 131.867C151.91 133.078 154.039 133.684 156.656 133.684C159.273 133.684 161.402 133.078 163.043 131.867C164.684 130.637 165.504 128.781 165.504 126.301V100.812H167.613ZM171.832 100.812V126.301C171.832 129.113 171.139 131.574 169.752 133.684C168.385 135.793 166.559 137.375 164.273 138.43C162.008 139.484 159.469 140.012 156.656 140.012C153.844 140.012 151.295 139.484 149.01 138.43C146.744 137.375 144.918 135.793 143.531 133.684C142.164 131.574 141.48 129.113 141.48 126.301V100.812H143.59V126.301C143.59 128.137 143.932 129.797 144.615 131.281C145.299 132.766 146.236 133.986 147.428 134.943C148.619 135.9 149.996 136.633 151.559 137.141C153.141 137.648 154.84 137.902 156.656 137.902C158.473 137.902 160.162 137.648 161.725 137.141C163.307 136.633 164.693 135.9 165.885 134.943C167.076 133.986 168.014 132.766 168.697 131.281C169.381 129.797 169.723 128.137 169.723 126.301V100.812H171.832ZM221.49 115.959C219.85 117.6 219.029 119.582 219.029 121.906C219.029 124.23 219.85 126.223 221.49 127.883C223.15 129.523 225.143 130.344 227.467 130.344C229.791 130.344 231.773 129.523 233.414 127.883C235.074 126.223 235.904 124.23 235.904 121.906C235.904 119.582 235.074 117.6 233.414 115.959C231.773 114.299 229.791 113.469 227.467 113.469C225.143 113.469 223.15 114.299 221.49 115.959ZM219.996 129.377C217.945 127.307 216.92 124.816 216.92 121.906C216.92 118.996 217.945 116.516 219.996 114.465C222.066 112.395 224.557 111.359 227.467 111.359C230.377 111.359 232.857 112.395 234.908 114.465C236.979 116.516 238.014 118.996 238.014 121.906C238.014 124.816 236.979 127.307 234.908 129.377C232.857 131.428 230.377 132.453 227.467 132.453C224.557 132.453 222.066 131.428 219.996 129.377ZM218.502 112.971C216.041 115.451 214.811 118.43 214.811 121.906C214.811 125.383 216.041 128.361 218.502 130.842C220.982 133.322 223.971 134.562 227.467 134.562C230.963 134.562 233.941 133.322 236.402 130.842C238.883 128.361 240.123 125.383 240.123 121.906C240.123 118.43 238.883 115.451 236.402 112.971C233.941 110.49 230.963 109.25 227.467 109.25C223.971 109.25 220.982 110.49 218.502 112.971ZM214.664 129.318C213.355 127.053 212.701 124.582 212.701 121.906C212.701 119.23 213.355 116.76 214.664 114.494C215.992 112.229 217.789 110.441 220.055 109.133C222.32 107.805 224.791 107.141 227.467 107.141C230.143 107.141 232.613 107.805 234.879 109.133C237.145 110.441 238.932 112.229 240.24 114.494C241.568 116.76 242.232 119.23 242.232 121.906C242.232 124.582 241.568 127.053 240.24 129.318C238.932 131.584 237.145 133.381 234.879 134.709C232.613 136.018 230.143 136.672 227.467 136.672C224.791 136.672 222.32 136.018 220.055 134.709C217.789 133.381 215.992 131.584 214.664 129.318ZM211.91 115.373C211.031 117.443 210.592 119.621 210.592 121.906C210.592 124.191 211.031 126.379 211.91 128.469C212.809 130.539 214.01 132.336 215.514 133.859C217.037 135.363 218.834 136.564 220.904 137.463C222.994 138.342 225.182 138.781 227.467 138.781C229.752 138.781 231.93 138.342 234 137.463C236.09 136.564 237.887 135.363 239.391 133.859C240.914 132.336 242.115 130.539 242.994 128.469C243.893 126.379 244.342 124.191 244.342 121.906C244.342 119.621 243.893 117.443 242.994 115.373C242.115 113.283 240.914 111.486 239.391 109.982C237.887 108.459 236.09 107.258 234 106.379C231.93 105.48 229.752 105.031 227.467 105.031C225.182 105.031 222.994 105.48 220.904 106.379C218.834 107.258 217.037 108.459 215.514 109.982C214.01 111.486 212.809 113.283 211.91 115.373ZM209.977 129.289C208.98 126.945 208.482 124.484 208.482 121.906C208.482 119.328 208.98 116.867 209.977 114.523C210.992 112.18 212.34 110.168 214.02 108.488C215.719 106.789 217.74 105.441 220.084 104.445C222.428 103.43 224.889 102.922 227.467 102.922C230.045 102.922 232.506 103.43 234.85 104.445C237.193 105.441 239.205 106.789 240.885 108.488C242.584 110.168 243.932 112.18 244.928 114.523C245.943 116.867 246.451 119.328 246.451 121.906C246.451 124.484 245.943 126.945 244.928 129.289C243.932 131.633 242.584 133.654 240.885 135.354C239.205 137.033 237.193 138.381 234.85 139.396C232.506 140.393 230.045 140.891 227.467 140.891C224.889 140.891 222.428 140.393 220.084 139.396C217.74 138.381 215.719 137.033 214.02 135.354C212.34 133.654 210.992 131.633 209.977 129.289ZM208.043 113.732C206.93 116.33 206.373 119.055 206.373 121.906C206.373 124.758 206.93 127.492 208.043 130.109C209.156 132.707 210.65 134.953 212.525 136.848C214.42 138.723 216.666 140.217 219.264 141.33C221.881 142.443 224.615 143 227.467 143C230.318 143 233.043 142.443 235.641 141.33C238.258 140.217 240.504 138.723 242.379 136.848C244.273 134.953 245.777 132.707 246.891 130.109C248.004 127.492 248.561 124.758 248.561 121.906C248.561 119.055 248.004 116.33 246.891 113.732C245.777 111.115 244.273 108.869 242.379 106.994C240.504 105.1 238.258 103.596 235.641 102.482C233.043 101.369 230.318 100.812 227.467 100.812C224.615 100.812 221.881 101.369 219.264 102.482C216.666 103.596 214.42 105.1 212.525 106.994C210.65 108.869 209.156 111.115 208.043 113.732ZM206.109 130.93C204.879 128.059 204.264 125.051 204.264 121.906C204.264 118.762 204.879 115.764 206.109 112.912C207.34 110.041 208.99 107.57 211.061 105.5C213.131 103.43 215.592 101.779 218.443 100.549C221.314 99.3184 224.322 98.7031 227.467 98.7031C230.611 98.7031 233.609 99.3184 236.461 100.549C239.332 101.779 241.803 103.43 243.873 105.5C245.943 107.57 247.594 110.041 248.824 112.912C250.055 115.764 250.67 118.762 250.67 121.906C250.67 125.051 250.055 128.059 248.824 130.93C247.594 133.781 245.943 136.242 243.873 138.312C241.803 140.383 239.332 142.033 236.461 143.264C233.609 144.494 230.611 145.109 227.467 145.109C224.322 145.109 221.314 144.494 218.443 143.264C215.592 142.033 213.131 140.383 211.061 138.312C208.99 136.242 207.34 133.781 206.109 130.93ZM271.354 122.844H284.068C285.748 122.844 287.174 122.316 288.346 121.262C289.518 120.207 290.104 118.723 290.104 116.809C290.104 115.402 289.488 114.143 288.258 113.029C287.047 111.916 285.65 111.359 284.068 111.359H265.963V143H263.854V109.25H284.068C286.236 109.25 288.131 110.012 289.752 111.535C291.393 113.059 292.213 114.816 292.213 116.809C292.213 119.289 291.422 121.271 289.84 122.756C288.258 124.221 286.334 124.953 284.068 124.953H271.354V122.844ZM271.354 127.062H284.068C286.881 127.062 289.293 126.105 291.305 124.191C293.316 122.277 294.322 119.816 294.322 116.809C294.322 114.25 293.297 112.004 291.246 110.07C289.195 108.117 286.803 107.141 284.068 107.141H261.744V143H259.635V105.031H284.068C287.389 105.031 290.279 106.213 292.74 108.576C295.201 110.92 296.432 113.664 296.432 116.809C296.432 120.324 295.211 123.264 292.77 125.627C290.348 127.99 287.447 129.172 284.068 129.172H271.354V127.062ZM271.354 131.281H284.068C286.666 131.281 289.068 130.656 291.275 129.406C293.482 128.156 295.24 126.418 296.549 124.191C297.877 121.965 298.541 119.504 298.541 116.809C298.541 114.367 297.887 112.082 296.578 109.953C295.27 107.805 293.492 106.096 291.246 104.826C289.02 103.557 286.627 102.922 284.068 102.922H257.525V143H255.416V100.812H284.068C286.275 100.812 288.395 101.252 290.426 102.131C292.477 102.99 294.244 104.143 295.729 105.588C297.213 107.014 298.404 108.713 299.303 110.686C300.201 112.658 300.65 114.699 300.65 116.809C300.65 120.227 299.869 123.215 298.307 125.773C296.744 128.312 294.645 130.246 292.008 131.574L296.432 143H294.176L289.986 132.424C289.459 132.6 288.844 132.775 288.141 132.951L292.096 143H289.84L285.973 133.303C285.367 133.361 284.732 133.391 284.068 133.391L287.789 143H285.562L281.871 133.391H279.967L283.512 143H281.285L277.711 133.391H271.354V131.281ZM270.182 143H268.072V113.469H284.068C285.162 113.469 286.09 113.801 286.852 114.465C287.613 115.109 287.994 115.891 287.994 116.809C287.994 119.426 286.686 120.734 284.068 120.734H271.354V118.625H284.068C285.279 118.625 285.885 118.02 285.885 116.809C285.885 116.477 285.699 116.193 285.328 115.959C284.977 115.705 284.557 115.578 284.068 115.578H270.182V143ZM349.664 100.812H347.32L335.572 122.082L347.145 143H349.488L337.916 122.082L349.664 100.812ZM344.947 100.812H342.604L330.855 122.082L342.428 143H344.771L333.199 122.082L344.947 100.812ZM340.23 100.812H337.887L326.139 122.082L337.711 143H340.055L328.482 122.082L340.23 100.812ZM335.514 100.812H333.17L321.393 122.082L332.994 143H335.338L323.736 122.082L335.514 100.812ZM317.994 100.812H320.104V143H317.994V100.812ZM313.775 100.812H315.885V143H313.775V100.812ZM309.557 100.812H311.666V143H309.557V100.812ZM305.338 100.812H307.447V143H305.338V100.812Z" fill="black"/>
<path d="M19.751 83.7061V82.6514H35V83.7061H19.751ZM14.9609 87.9248H13.9062L13.9063 72.1045H14.9609L14.9609 87.9248ZM17.0703 87.9248H16.0156V72.1045H17.0703V87.9248ZM19.1797 87.9248H18.125V72.1045H19.1797V87.9248ZM19.751 77.3779V76.3232H35V77.3779H19.751ZM19.751 79.4873V78.4326H35V79.4873H19.751ZM19.751 81.5967V80.542H35V81.5967H19.751ZM13.9063 48.667V47.6123H35V48.667H13.9063ZM13.9063 69.7754V68.7207H35V69.7754H13.9063ZM13.9063 50.7764V49.7217H35V50.7764H13.9063ZM13.9063 52.8857V51.8311H35V52.8857H13.9063ZM13.9063 54.9951V53.9404H35V54.9951H26.5625L26.5625 62.3926H35V63.4473H13.9063V62.3926H21.2891L21.2891 54.9951H13.9063ZM13.9063 65.5566V64.502H35V65.5566H13.9063ZM13.9063 67.666V66.6113H35V67.666H13.9063ZM25.5078 54.9951H24.4531L24.4531 62.3926H25.5078L25.5078 54.9951ZM23.3984 54.9951H22.3438L22.3438 62.3926H23.3984L23.3984 54.9951ZM35 39.5703V40.625H13.9063V39.5703H35ZM35 41.6797V42.7344H13.9063V41.6797H35ZM35 43.7891V44.8438H13.9063V43.7891H35ZM29.7266 37.4609V27.3682H30.7813V37.4609H31.8359V27.3682H32.8906L32.8906 37.4609H33.9453L33.9453 27.3682H35L35 38.5156H13.9063V27.3682H14.9609V37.4609H16.0156V27.3682H17.0703V37.4609H18.125V27.3682H19.1797V37.4609H21.8018V27.9541H22.8564V37.4609H23.9111V27.9541H24.9658V37.4609H26.0205V27.9541H27.0752V37.4609H29.7266Z" fill="black"/>
</svg>
