<svg width="17" height="19" viewBox="0 0 17 19" fill="none" xmlns="http://www.w3.org/2000/svg">
<path d="M4.72222 11.4C4.45463 11.4 4.23017 11.3088 4.04883 11.1264C3.86813 10.9446 3.77778 10.7192 3.77778 10.45C3.77778 10.1808 3.86813 9.95505 4.04883 9.77265C4.23017 9.59088 4.45463 9.5 4.72222 9.5C4.98981 9.5 5.21428 9.59088 5.39561 9.77265C5.57631 9.95505 5.66667 10.1808 5.66667 10.45C5.66667 10.7192 5.57631 10.9446 5.39561 11.1264C5.21428 11.3088 4.98981 11.4 4.72222 11.4ZM8.5 11.4C8.23241 11.4 8.00826 11.3088 7.82756 11.1264C7.64622 10.9446 7.55556 10.7192 7.55556 10.45C7.55556 10.1808 7.64622 9.95505 7.82756 9.77265C8.00826 9.59088 8.23241 9.5 8.5 9.5C8.76759 9.5 8.99206 9.59088 9.17339 9.77265C9.35409 9.95505 9.44444 10.1808 9.44444 10.45C9.44444 10.7192 9.35409 10.9446 9.17339 11.1264C8.99206 11.3088 8.76759 11.4 8.5 11.4ZM12.2778 11.4C12.0102 11.4 11.786 11.3088 11.6053 11.1264C11.424 10.9446 11.3333 10.7192 11.3333 10.45C11.3333 10.1808 11.424 9.95505 11.6053 9.77265C11.786 9.59088 12.0102 9.5 12.2778 9.5C12.5454 9.5 12.7695 9.59088 12.9502 9.77265C13.1316 9.95505 13.2222 10.1808 13.2222 10.45C13.2222 10.7192 13.1316 10.9446 12.9502 11.1264C12.7695 11.3088 12.5454 11.4 12.2778 11.4ZM1.88889 19C1.36944 19 0.924611 18.8141 0.554389 18.4424C0.184796 18.07 0 17.6225 0 17.1V3.8C0 3.2775 0.184796 2.83037 0.554389 2.4586C0.924611 2.0862 1.36944 1.9 1.88889 1.9H2.83333V0.92625C2.83333 0.657083 2.92369 0.435417 3.10439 0.26125C3.28572 0.0870834 3.51019 0 3.77778 0C4.04537 0 4.26983 0.0908833 4.45117 0.27265C4.63187 0.45505 4.72222 0.680833 4.72222 0.95V1.9H12.2778V0.92625C12.2778 0.657083 12.3684 0.435417 12.5498 0.26125C12.7305 0.0870834 12.9546 0 13.2222 0C13.4898 0 13.714 0.0908833 13.8947 0.27265C14.076 0.45505 14.1667 0.680833 14.1667 0.95V1.9H15.1111C15.6306 1.9 16.0754 2.0862 16.4456 2.4586C16.8152 2.83037 17 3.2775 17 3.8V17.1C17 17.6225 16.8152 18.07 16.4456 18.4424C16.0754 18.8141 15.6306 19 15.1111 19H1.88889ZM1.88889 17.1H15.1111V7.6H1.88889V17.1Z" fill="#959595"/>
</svg>
