<svg width="18" height="15" viewBox="0 0 18 15" fill="none" xmlns="http://www.w3.org/2000/svg">
<path d="M5.20971 5.8825C5.82814 5.82 6.30643 5.92875 6.47743 6.01125C6.55321 6.05098 6.63642 6.0755 6.72213 6.08337C6.80784 6.09124 6.89431 6.08229 6.9764 6.05705C7.05848 6.03181 7.13452 5.9908 7.19999 5.93645C7.26546 5.88209 7.31904 5.81551 7.35754 5.74065C7.39605 5.66578 7.41869 5.58416 7.42413 5.50062C7.42957 5.41709 7.41769 5.33334 7.38921 5.25436C7.36072 5.17537 7.31621 5.10275 7.25831 5.0408C7.20041 4.97886 7.1303 4.92885 7.05214 4.89375C6.60086 4.67375 5.859 4.56 5.076 4.64C3.84171 4.765 2.57143 5.8075 2.57143 7.51125C2.57143 9.2425 3.92657 10.3862 5.52857 10.3862C6.27429 10.3862 6.94286 10.0462 7.32471 9.695C7.66157 9.385 7.71429 8.97375 7.71429 8.71625V7.51125C7.71429 7.34549 7.64656 7.18652 7.526 7.06931C7.40544 6.9521 7.24192 6.88625 7.07143 6.88625H6.03386C5.86336 6.88625 5.69985 6.9521 5.57929 7.06931C5.45873 7.18652 5.391 7.34549 5.391 7.51125C5.391 7.67701 5.45873 7.83598 5.57929 7.95319C5.69985 8.0704 5.86336 8.13625 6.03386 8.13625H6.42857V8.71625C6.42855 8.74599 6.42597 8.77568 6.42086 8.805C6.17054 9.01037 5.85598 9.12715 5.52857 9.13625C4.58871 9.13625 3.85714 8.505 3.85714 7.51125C3.85714 6.48875 4.58614 5.94625 5.20971 5.8825ZM10.2857 5.2625C10.2857 5.09674 10.218 4.93777 10.0974 4.82056C9.97687 4.70335 9.81335 4.6375 9.64286 4.6375C9.47236 4.6375 9.30885 4.70335 9.18829 4.82056C9.06773 4.93777 9 5.09674 9 5.2625V9.7625C9 9.92826 9.06773 10.0872 9.18829 10.2044C9.30885 10.3217 9.47236 10.3875 9.64286 10.3875C9.81335 10.3875 9.97687 10.3217 10.0974 10.2044C10.218 10.0872 10.2857 9.92826 10.2857 9.7625V5.2625ZM12.2143 4.6375C12.0438 4.6375 11.8803 4.70335 11.7597 4.82056C11.6392 4.93777 11.5714 5.09674 11.5714 5.2625V9.7625C11.5714 9.92826 11.6392 10.0872 11.7597 10.2044C11.8803 10.3217 12.0438 10.3875 12.2143 10.3875C12.3848 10.3875 12.5483 10.3217 12.6689 10.2044C12.7894 10.0872 12.8571 9.92826 12.8571 9.7625V8.1325L14.1467 8.125C14.3172 8.12401 14.4803 8.0572 14.6002 7.93929C14.72 7.82138 14.7867 7.66201 14.7857 7.49625C14.7847 7.33049 14.716 7.17191 14.5947 7.05541C14.4734 6.9389 14.3095 6.87401 14.139 6.875L12.8571 6.8825V5.88625H14.7857C14.9562 5.88625 15.1197 5.8204 15.2403 5.70319C15.3608 5.58598 15.4286 5.42701 15.4286 5.26125C15.4286 5.09549 15.3608 4.93652 15.2403 4.81931C15.1197 4.7021 14.9562 4.63625 14.7857 4.63625H12.2143V4.6375ZM3.21429 0C2.3618 0 1.54424 0.32924 0.941442 0.915291C0.338647 1.50134 0 2.2962 0 3.125V11.875C0 12.7038 0.338647 13.4987 0.941442 14.0847C1.54424 14.6708 2.3618 15 3.21429 15H14.7857C15.6382 15 16.4558 14.6708 17.0586 14.0847C17.6614 13.4987 18 12.7038 18 11.875V3.125C18 2.2962 17.6614 1.50134 17.0586 0.915291C16.4558 0.32924 15.6382 0 14.7857 0H3.21429ZM1.28571 3.125C1.28571 2.62772 1.4889 2.15081 1.85058 1.79917C2.21226 1.44754 2.7028 1.25 3.21429 1.25H14.7857C15.2972 1.25 15.7877 1.44754 16.1494 1.79917C16.5111 2.15081 16.7143 2.62772 16.7143 3.125V11.875C16.7143 12.3723 16.5111 12.8492 16.1494 13.2008C15.7877 13.5525 15.2972 13.75 14.7857 13.75H3.21429C2.7028 13.75 2.21226 13.5525 1.85058 13.2008C1.4889 12.8492 1.28571 12.3723 1.28571 11.875V3.125Z" fill="black"/>
</svg>
