<svg width="23" height="24" viewBox="0 0 23 24" fill="none" xmlns="http://www.w3.org/2000/svg">
<path d="M8.35 19.9H5.2C4.08609 19.9 3.0178 19.4575 2.23015 18.6698C1.4425 17.8822 1 16.8139 1 15.7V6.25C1 5.13609 1.4425 4.0678 2.23015 3.28015C3.0178 2.4925 4.08609 2.05 5.2 2.05H16.75C17.8639 2.05 18.9322 2.4925 19.7199 3.28015C20.5075 4.0678 20.95 5.13609 20.95 6.25V9.4M7.3 1V3.1M14.65 1V3.1M1 7.3H20.95M18.325 15.3251L16.75 16.9001" stroke="#373737" stroke-linecap="round" stroke-linejoin="round"/>
<path d="M16.75 22C19.6495 22 22 19.6495 22 16.75C22 13.8505 19.6495 11.5 16.75 11.5C13.8505 11.5 11.5 13.8505 11.5 16.75C11.5 19.6495 13.8505 22 16.75 22Z" stroke="#373737" stroke-linecap="round" stroke-linejoin="round"/>
</svg>
