<svg width="25" height="25" viewBox="0 0 25 25" fill="none" xmlns="http://www.w3.org/2000/svg">
<path d="M24.6947 1.84306C24.8928 1.63795 25.0024 1.36324 25 1.07809C24.9975 0.792939 24.8831 0.520171 24.6815 0.318532C24.4798 0.116894 24.2071 0.00251898 23.9219 4.11118e-05C23.6368 -0.00243675 23.362 0.107181 23.1569 0.305285L9.01895 14.4433L8.7003 16.2997L10.5567 15.9811L24.6947 1.84306V1.84306ZM3.80638 1.07417C2.79687 1.07417 1.8287 1.4752 1.11486 2.18904C0.401029 2.90287 0 3.87104 0 4.88056V21.1936C0 22.2031 0.401029 23.1713 1.11486 23.8851C1.8287 24.599 2.79687 25 3.80638 25H20.1194C21.129 25 22.0971 24.599 22.811 23.8851C23.5248 23.1713 23.9258 22.2031 23.9258 21.1936V10.3182C23.9258 10.0298 23.8112 9.75319 23.6073 9.54924C23.4033 9.34529 23.1267 9.23071 22.8383 9.23071C22.5499 9.23071 22.2732 9.34529 22.0693 9.54924C21.8653 9.75319 21.7508 10.0298 21.7508 10.3182V21.1936C21.7508 21.6263 21.5789 22.0412 21.273 22.3471C20.967 22.6531 20.5521 22.8249 20.1194 22.8249H3.80638C3.37373 22.8249 2.9588 22.6531 2.65287 22.3471C2.34694 22.0412 2.17508 21.6263 2.17508 21.1936V4.88056C2.17508 4.44791 2.34694 4.03298 2.65287 3.72705C2.9588 3.42112 3.37373 3.24925 3.80638 3.24925H14.6818C14.9702 3.24925 15.2468 3.13467 15.4508 2.93072C15.6547 2.72676 15.7693 2.45014 15.7693 2.16171C15.7693 1.87328 15.6547 1.59666 15.4508 1.39271C15.2468 1.18875 14.9702 1.07417 14.6818 1.07417H3.80638Z" fill="#959595"/>
</svg>
