<svg width="40" height="41" viewBox="0 0 40 41" fill="none" xmlns="http://www.w3.org/2000/svg">
<path d="M21.9896 36.0238C22.52 36.0238 23.0287 36.2345 23.4038 36.6095C23.7789 36.9846 23.9896 37.4933 23.9896 38.0238C23.9896 38.5542 23.7789 39.0629 23.4038 39.438C23.0287 39.813 22.52 40.0238 21.9896 40.0238C21.4591 40.0238 20.9504 39.813 20.5754 39.438C20.2003 39.0629 19.9896 38.5542 19.9896 38.0238C19.9896 37.4933 20.2003 36.9846 20.5754 36.6095C20.9504 36.2345 21.4591 36.0238 21.9896 36.0238ZM14.9896 34.0238C15.52 34.0238 16.0287 34.2345 16.4038 34.6095C16.7789 34.9846 16.9896 35.4933 16.9896 36.0238C16.9896 36.5542 16.7789 37.0629 16.4038 37.438C16.0287 37.813 15.52 38.0238 14.9896 38.0238C14.4591 38.0238 13.9504 37.813 13.5754 37.438C13.2003 37.0629 12.9896 36.5542 12.9896 36.0238C12.9896 35.4933 13.2003 34.9846 13.5754 34.6095C13.9504 34.2345 14.4591 34.0238 14.9896 34.0238ZM28.9896 34.0238C29.52 34.0238 30.0287 34.2345 30.4038 34.6095C30.7789 34.9846 30.9896 35.4933 30.9896 36.0238C30.9896 36.5542 30.7789 37.0629 30.4038 37.438C30.0287 37.813 29.52 38.0238 28.9896 38.0238C28.4591 38.0238 27.9504 37.813 27.5754 37.438C27.2003 37.0629 26.9896 36.5542 26.9896 36.0238C26.9896 35.4933 27.2003 34.9846 27.5754 34.6095C27.9504 34.2345 28.4591 34.0238 28.9896 34.0238ZM21.9886 8.00276C28.3256 8.00276 31.9206 12.1968 32.4436 17.2628H32.6036C36.6816 17.2628 39.9876 20.5598 39.9876 24.6278C39.9876 28.6958 36.6816 31.9928 32.6036 31.9928H11.3736C7.29556 31.9928 3.98956 28.6958 3.98956 24.6278C3.98956 20.5598 7.29556 17.2628 11.3736 17.2628H11.5336C12.0596 12.1638 15.6516 8.00276 21.9886 8.00276ZM21.9886 10.4978C17.7276 10.4978 14.0136 13.9458 14.0136 18.7078C14.0136 19.4628 13.3576 20.0548 12.6056 20.0548H11.1856C8.59157 20.0548 6.48856 22.1688 6.48856 24.7758C6.48856 27.3838 8.59157 29.4978 11.1856 29.4978H32.7916C35.3856 29.4978 37.4886 27.3838 37.4886 24.7758C37.4886 22.1688 35.3856 20.0558 32.7916 20.0558H31.3716C30.6196 20.0558 29.9636 19.4628 29.9636 18.7078C29.9636 13.8848 26.2496 10.4978 21.9886 10.4978ZM4.69856 16.2958C4.81622 16.5801 4.8243 16.898 4.72124 17.188C4.61818 17.478 4.4113 17.7194 4.14056 17.8658L4.02556 17.9208L1.71356 18.8828C1.41946 19.0024 1.09074 19.005 0.794749 18.8901C0.498759 18.7752 0.257899 18.5515 0.121507 18.2648C-0.0148844 17.9781 -0.036484 17.6501 0.061133 17.348C0.15875 17.0458 0.368195 16.7925 0.646565 16.6398L0.761564 16.5848L3.07356 15.6228C3.37831 15.4966 3.72067 15.4966 4.0254 15.6228C4.33012 15.749 4.57226 15.9911 4.69856 16.2958ZM17.6986 6.65576L17.6366 6.67476C16.7126 6.97676 15.8526 7.37676 15.0666 7.86476C13.9926 7.41033 12.802 7.30901 11.6667 7.57546C10.5313 7.8419 9.51011 8.46231 8.75043 9.34708C7.99075 10.2318 7.53196 11.3352 7.44031 12.4977C7.34867 13.6603 7.62891 14.8219 8.24057 15.8148C7.48808 16.0837 6.77349 16.4487 6.11456 16.9008C5.19449 15.325 4.84954 13.4789 5.13855 11.6773C5.42755 9.87564 6.33261 8.23005 7.69937 7.02115C9.06612 5.81226 10.8099 5.11495 12.6334 5.04813C14.4568 4.98132 16.247 5.54914 17.6986 6.65476V6.65576ZM1.56956 6.83476L1.69656 6.88076L4.01656 7.86976C4.64557 8.13576 4.94756 8.86476 4.69056 9.49776C4.45056 10.0898 3.80756 10.3878 3.21056 10.2088L3.08456 10.1638L0.765565 9.17376C0.462569 9.04449 0.222247 8.8017 0.096079 8.49741C-0.0300891 8.19311 -0.0320689 7.8515 0.0905643 7.54576C0.330564 6.95476 0.973564 6.65576 1.57056 6.83476H1.56956ZM8.93857 0.660759L8.99356 0.776759L9.95356 3.08276C10.0765 3.3789 10.0809 3.71096 9.96595 4.01027C9.85096 4.30959 9.62535 4.55328 9.33577 4.69094C9.04618 4.82861 8.71477 4.84973 8.41005 4.74993C8.10533 4.65014 7.85061 4.43706 7.69856 4.15476L7.64356 4.03976L6.68356 1.73376C6.55918 1.4374 6.55373 1.10451 6.66835 0.804231C6.78297 0.503954 7.00885 0.259367 7.29907 0.121268C7.5893 -0.0168317 7.92157 -0.03783 8.22688 0.0626334C8.53218 0.163097 8.78706 0.377302 8.93857 0.660759ZM17.9866 0.100759C18.5886 0.350759 18.8956 1.01076 18.7166 1.62176L18.6706 1.75176L17.6786 4.02776C17.5529 4.3235 17.3193 4.56028 17.0253 4.68996C16.7313 4.81964 16.399 4.83249 16.0959 4.72588C15.7927 4.61928 15.5416 4.40123 15.3935 4.11607C15.2454 3.83091 15.2114 3.50005 15.2986 3.19076L15.3446 3.06076L16.3356 0.784759C16.4639 0.475179 16.7099 0.229222 17.0195 0.100957C17.3291 -0.0273069 17.6769 -0.0273785 17.9866 0.100759Z" fill="#6B30A4"/>
</svg>
