<svg width="33" height="33" viewBox="0 0 33 33" fill="none" xmlns="http://www.w3.org/2000/svg">
<path d="M6.65755 13.3472L24.6686 8.80074C24.8506 8.75468 25.0418 8.76108 25.2203 8.8192C25.3988 8.87731 25.5572 8.98476 25.6772 9.12912C25.7971 9.27348 25.8738 9.44885 25.8982 9.63495C25.9227 9.82105 25.894 10.0103 25.8154 10.1807L18.0493 27.0554C17.9698 27.2285 17.8422 27.3751 17.6817 27.4778C17.5213 27.5804 17.3347 27.6348 17.1442 27.6345C16.9537 27.6342 16.7674 27.5791 16.6073 27.4759C16.4472 27.3727 16.3201 27.2257 16.2411 27.0524L13.6022 21.2535C13.5698 21.1825 13.5591 21.1035 13.5713 21.0264C13.5836 20.9493 13.6183 20.8775 13.671 20.8199L19.2115 14.7814C19.2345 14.756 19.2505 14.7251 19.2581 14.6916C19.2656 14.6582 19.2644 14.6234 19.2545 14.5905L19.234 14.5435C19.2104 14.5053 19.1747 14.4762 19.1325 14.461C19.0903 14.4457 19.0442 14.4451 19.0017 14.4593L18.9604 14.4781L12.016 18.8147C11.9498 18.8558 11.873 18.8766 11.795 18.8744C11.7171 18.8723 11.6415 18.8472 11.5777 18.8025L6.33016 15.126C6.17399 15.0167 6.05251 14.8649 5.9802 14.6886C5.90789 14.5122 5.88778 14.3188 5.92228 14.1314C5.95678 13.9439 6.04443 13.7704 6.17478 13.6313C6.30514 13.4923 6.47272 13.3937 6.65755 13.3472V13.3472Z" fill="#373737"/>
<rect x="0.5" y="0.5" width="32" height="32" rx="9.5" stroke="#373737"/>
</svg>
