<svg width="23" height="24" viewBox="0 0 23 24" fill="none" xmlns="http://www.w3.org/2000/svg">
<path d="M11.5 0C8.4614 0.0366599 5.55758 1.26003 3.40881 3.40881C1.26003 5.55758 0.0366599 8.4614 0 11.5C0.0366599 14.5386 1.26003 17.4424 3.40881 19.5912C5.55758 21.74 8.4614 22.9633 11.5 23C14.5386 22.9633 17.4424 21.74 19.5912 19.5912C21.74 17.4424 22.9633 14.5386 23 11.5C22.9633 8.4614 21.74 5.55758 19.5912 3.40881C17.4424 1.26003 14.5386 0.0366599 11.5 0V0ZM18.0714 12.3214H12.3214V18.0714H10.6786V12.3214H4.92857V10.6786H10.6786V4.92857H12.3214V10.6786H18.0714V12.3214Z" fill="#373737"/>
</svg>
