<svg width="23" height="24" viewBox="0 0 23 24" fill="none" xmlns="http://www.w3.org/2000/svg">
<line x1="7.98303" y1="8.88086" x2="14.6656" y2="8.88086" stroke="#ECECEC" stroke-linecap="round"/>
<line x1="4.69049" y1="12.2234" x2="15.763" y2="12.2234" stroke="#ECECEC" stroke-linecap="round"/>
<line x1="7.58392" y1="15.915" x2="13.9173" y2="15.915" stroke="#ECECEC" stroke-linecap="round"/>
<path d="M10.9988 23C12.9084 23.0024 14.7854 22.5056 16.4438 21.559L19.9198 22.549C20.1455 22.6124 20.384 22.6146 20.6109 22.5554C20.8377 22.4961 21.0447 22.3774 21.2105 22.2116C21.3762 22.0459 21.4949 21.8389 21.5542 21.6121C21.6135 21.3852 21.6113 21.1467 21.5478 20.921L20.5578 17.445C21.7551 15.3434 22.2263 12.9058 21.8985 10.5094C21.5708 8.11298 20.4623 5.89142 18.7447 4.18849C17.0271 2.48557 14.796 1.39624 12.3969 1.08908C9.99779 0.781916 7.56431 1.27405 5.47307 2.48933C3.38184 3.7046 1.74945 5.57526 0.828531 7.81179C-0.0923862 10.0483 -0.250484 12.526 0.378702 14.8615C1.00789 17.1969 2.38928 19.2599 4.30909 20.7311C6.22891 22.2023 8.58011 22.9997 10.9988 23ZM16.3888 20.646C16.3123 20.6474 16.237 20.6663 16.1688 20.701C14.0487 21.9607 11.5416 22.4028 9.11848 21.9444C6.69537 21.486 4.52302 20.1586 3.00956 18.2115C1.49609 16.2645 0.745667 13.8318 0.899261 11.3705C1.05286 8.90919 2.0999 6.58867 3.84369 4.84488C5.58748 3.10109 7.908 2.05405 10.3693 1.90045C12.8306 1.74686 15.2633 2.49728 17.2104 4.01075C19.1574 5.52421 20.4848 7.69656 20.9432 10.1197C21.4016 12.5428 20.9595 15.0499 19.6998 17.17C19.6407 17.2734 19.6249 17.396 19.6558 17.511L20.7008 21.163C20.7208 21.2376 20.7209 21.3162 20.7009 21.3908C20.6809 21.4655 20.6416 21.5335 20.587 21.5882C20.5323 21.6428 20.4643 21.6821 20.3896 21.7021C20.315 21.722 20.2364 21.722 20.1618 21.702L16.5098 20.657L16.3888 20.646Z" fill="#ECECEC"/>
</svg>
