<svg width="41" height="41" viewBox="0 0 41 41" fill="none" xmlns="http://www.w3.org/2000/svg">
<path d="M14.598 35.9662H8.77027C6.70947 35.9662 4.73307 35.1476 3.27586 33.6904C1.81865 32.2331 1 30.2567 1 28.1959V10.7128C1 8.65203 1.81865 6.67563 3.27586 5.21843C4.73307 3.76122 6.70947 2.94257 8.77027 2.94257H30.1385C32.1993 2.94257 34.1757 3.76122 35.6329 5.21843C37.0901 6.67563 37.9088 8.65203 37.9088 10.7128V16.5405M12.6554 1V4.88513M26.2534 1V4.88513M1 12.6554H37.9088M33.0524 27.5024L30.1385 30.4163" stroke="#373737" stroke-width="2" stroke-linecap="round" stroke-linejoin="round"/>
<path d="M30.1385 39.8515C35.5027 39.8515 39.8513 35.5029 39.8513 30.1386C39.8513 24.7744 35.5027 20.4258 30.1385 20.4258C24.7742 20.4258 20.4256 24.7744 20.4256 30.1386C20.4256 35.5029 24.7742 39.8515 30.1385 39.8515Z" stroke="#373737" stroke-width="2" stroke-linecap="round" stroke-linejoin="round"/>
</svg>
