<svg width="43" height="42" viewBox="0 0 43 42" fill="none" xmlns="http://www.w3.org/2000/svg">
<path d="M21.5086 0C9.65197 0 0 8.44211 0 18.82C0 29.1979 9.65197 37.64 21.5086 37.64C23.7268 37.6374 25.9342 37.3298 28.0687 36.7259L35.5026 41.4578C35.7055 41.588 35.9397 41.6612 36.1807 41.6698C36.4217 41.6783 36.6605 41.6219 36.8722 41.5065C37.0839 41.391 37.2606 41.2207 37.3839 41.0135C37.5071 40.8062 37.5724 40.5697 37.5728 40.3286V31.2815C39.2548 29.6679 40.597 27.7342 41.5205 25.5941C42.444 23.454 42.93 21.1508 42.9499 18.82C43.0171 8.44211 33.3652 0 21.5086 0ZM35.3413 29.7221C35.2061 29.8475 35.0982 29.9993 35.0242 30.1681C34.9502 30.3369 34.9117 30.5191 34.9111 30.7035V37.882L29.0231 34.1314C28.8589 34.0276 28.6741 33.9606 28.4815 33.9351C28.2888 33.9095 28.093 33.9261 27.9074 33.9835C25.8354 34.627 23.6781 34.9534 21.5086 34.9514C11.1307 34.9514 2.68857 27.7192 2.68857 18.82C2.68857 9.92082 11.1307 2.68857 21.5086 2.68857C31.8864 2.68857 40.3286 9.92082 40.3286 18.82C40.2979 20.8836 39.8388 22.9183 38.9802 24.795C38.1217 26.6718 36.8825 28.3496 35.3413 29.7221Z" fill="#373737"/>
<path d="M30.9186 17.4756H12.0986C11.742 17.4756 11.4001 17.6172 11.148 17.8693C10.8959 18.1214 10.7543 18.4633 10.7543 18.8199C10.7543 19.1764 10.8959 19.5183 11.148 19.7704C11.4001 20.0225 11.742 20.1642 12.0986 20.1642H30.9186C31.2751 20.1642 31.617 20.0225 31.8691 19.7704C32.1212 19.5183 32.2628 19.1764 32.2628 18.8199C32.2628 18.4633 32.1212 18.1214 31.8691 17.8693C31.617 17.6172 31.2751 17.4756 30.9186 17.4756Z" fill="#373737"/>
<path d="M26.5496 24.197H16.4675C16.111 24.197 15.769 24.3387 15.5169 24.5908C15.2648 24.8429 15.1232 25.1848 15.1232 25.5413C15.1232 25.8978 15.2648 26.2398 15.5169 26.4919C15.769 26.744 16.111 26.8856 16.4675 26.8856H26.5496C26.9062 26.8856 27.2481 26.744 27.5002 26.4919C27.7523 26.2398 27.8939 25.8978 27.8939 25.5413C27.8939 25.1848 27.7523 24.8429 27.5002 24.5908C27.2481 24.3387 26.9062 24.197 26.5496 24.197Z" fill="#373737"/>
<path d="M16.9715 13.69H30.0285C30.2862 13.69 30.5333 13.5483 30.7155 13.2961C30.8976 13.0438 31 12.7017 31 12.345C31 11.9883 30.8976 11.6462 30.7155 11.3939C30.5333 11.1417 30.2862 11 30.0285 11H16.9715C16.7138 11 16.4667 11.1417 16.2845 11.3939C16.1024 11.6462 16 11.9883 16 12.345C16 12.7017 16.1024 13.0438 16.2845 13.2961C16.4667 13.5483 16.7138 13.69 16.9715 13.69Z" fill="#373737"/>
</svg>
