<svg width="23" height="24" viewBox="0 0 23 24" fill="none" xmlns="http://www.w3.org/2000/svg">
<path d="M11.5 1C5.70085 1 1 5.70085 1 11.5C1 17.2991 5.70085 22 11.5 22C17.2991 22 22 17.2991 22 11.5C22 5.70085 17.2991 1 11.5 1Z" stroke="#373737" stroke-linecap="round" stroke-linejoin="round"/>
<path d="M3.38452 18.1633C3.38452 18.1633 5.72497 15.175 11.5 15.175C17.275 15.175 19.6165 18.1633 19.6165 18.1633M11.5 11.5C12.3354 11.5 13.1366 11.1681 13.7274 10.5773C14.3181 9.9866 14.65 9.18538 14.65 8.34995C14.65 7.51452 14.3181 6.7133 13.7274 6.12256C13.1366 5.53183 12.3354 5.19995 11.5 5.19995C10.6645 5.19995 9.86332 5.53183 9.27259 6.12256C8.68185 6.7133 8.34997 7.51452 8.34997 8.34995C8.34997 9.18538 8.68185 9.9866 9.27259 10.5773C9.86332 11.1681 10.6645 11.5 11.5 11.5Z" stroke="#373737" stroke-linecap="round" stroke-linejoin="round"/>
</svg>
