<svg width="23" height="18" viewBox="0 0 23 18" fill="none" xmlns="http://www.w3.org/2000/svg">
<path d="M22.567 3.77032C22.6552 3.85934 22.7252 3.96509 22.773 4.08152C22.8208 4.19795 22.8454 4.32276 22.8454 4.44881C22.8454 4.57487 22.8208 4.69968 22.773 4.81611C22.7252 4.93254 22.6552 5.03829 22.567 5.12731L19.4456 8.28214L22.567 11.437C22.7449 11.6169 22.8449 11.861 22.8449 12.1155C22.8449 12.37 22.7449 12.614 22.567 12.794C22.389 12.9739 22.1477 13.075 21.8961 13.075C21.6444 13.075 21.4031 12.9739 21.2252 12.794L18.1057 9.63723L14.9862 12.794C14.8082 12.9739 14.5669 13.075 14.3153 13.075C14.0636 13.075 13.8223 12.9739 13.6444 12.794C13.4664 12.614 13.3665 12.37 13.3665 12.1155C13.3665 11.861 13.4664 11.6169 13.6444 11.437L16.7658 8.28214L13.6444 5.12731C13.5562 5.03821 13.4864 4.93243 13.4387 4.81602C13.391 4.6996 13.3665 4.57482 13.3665 4.44881C13.3665 4.32281 13.391 4.19803 13.4387 4.08161C13.4864 3.9652 13.5562 3.85942 13.6444 3.77032C13.8223 3.59037 14.0636 3.48927 14.3153 3.48927C14.4399 3.48927 14.5632 3.51409 14.6783 3.56231C14.7935 3.61053 14.8981 3.68121 14.9862 3.77032L18.1057 6.92706L21.2252 3.77032C21.3132 3.68107 21.4178 3.61026 21.5329 3.56195C21.648 3.51364 21.7714 3.48877 21.8961 3.48877C22.0207 3.48877 22.1441 3.51364 22.2593 3.56195C22.3744 3.61026 22.479 3.68107 22.567 3.77032Z" fill="black"/>
<path d="M10.8349 0.0947747C10.9954 0.172991 11.1309 0.295406 11.2258 0.447967C11.3207 0.600528 11.3711 0.777052 11.3712 0.957274V16.2906C11.371 16.4709 11.3204 16.6475 11.2254 16.8001C11.1303 16.9527 10.9946 17.075 10.8339 17.1531C10.6732 17.2312 10.4939 17.2618 10.3167 17.2414C10.1396 17.2211 9.97166 17.1506 9.83233 17.0381L5.35396 13.4156H0.947603C0.696283 13.4156 0.455256 13.3146 0.277546 13.1349C0.0998364 12.9552 0 12.7114 0 12.4573V4.7906C0 4.53644 0.0998364 4.29268 0.277546 4.11296C0.455256 3.93324 0.696283 3.83227 0.947603 3.83227H5.35396L9.83233 0.209774C9.97176 0.0970513 10.1398 0.0264515 10.3172 0.0061059C10.4946 -0.0142397 10.674 0.0164966 10.8349 0.0947747Z" fill="black"/>
</svg>
