<svg width="23" height="24" viewBox="0 0 23 24" fill="none" xmlns="http://www.w3.org/2000/svg">
<g clip-path="url(#clip0_2527_1299)">
<path d="M22 19.827V11.3241C22.0001 10.7326 21.8834 10.1472 21.6572 9.60394C21.4309 9.06066 21.0999 8.57089 20.6843 8.16463L12.9427 0.593968C12.5528 0.212531 12.0366 0 11.5 0C10.9634 0 10.4472 0.212531 10.0573 0.593968L2.31565 8.16463C1.90009 8.57089 1.56905 9.06066 1.34282 9.60394C1.1166 10.1472 0.999939 10.7326 1 11.3241V19.827C1 20.4033 1.22125 20.956 1.61508 21.3635C2.0089 21.7711 2.54305 22 3.1 22H19.9C20.457 22 20.9911 21.7711 21.3849 21.3635C21.7787 20.956 22 20.4033 22 19.827Z" stroke="#ECECEC" stroke-linecap="round" stroke-linejoin="round"/>
</g>
<defs>
<clipPath id="clip0_2527_1299">
<rect width="23" height="24" fill="white"/>
</clipPath>
</defs>
</svg>
