<svg width="23" height="24" viewBox="0 0 23 24" fill="none" xmlns="http://www.w3.org/2000/svg">
<g clip-path="url(#clip0_2527_1299)">
<path d="M22 20.827V12.3241C22.0001 11.7326 21.8834 11.1472 21.6572 10.6039C21.4309 10.0607 21.0999 9.57089 20.6843 9.16463L12.9427 1.59397C12.5528 1.21253 12.0366 1 11.5 1C10.9634 1 10.4472 1.21253 10.0573 1.59397L2.31565 9.16463C1.90009 9.57089 1.56905 10.0607 1.34282 10.6039C1.1166 11.1472 0.999939 11.7326 1 12.3241V20.827C1 21.4033 1.22125 21.956 1.61508 22.3635C2.0089 22.7711 2.54305 23 3.1 23H19.9C20.457 23 20.9911 22.7711 21.3849 22.3635C21.7787 21.956 22 21.4033 22 20.827Z" stroke="#373737" stroke-linecap="round" stroke-linejoin="round"/>
</g>
<defs>
<clipPath id="clip0_2527_1299">
<rect width="23" height="24" fill="white"/>
</clipPath>
</defs>
</svg>
