<svg width="31" height="31" viewBox="0 0 31 31" fill="none" xmlns="http://www.w3.org/2000/svg">
<path d="M11.625 13.1785H15.5C15.9111 13.1785 16.3053 13.0153 16.596 12.7246C16.8867 12.434 17.05 12.0399 17.05 11.6288C17.05 11.2178 16.8867 10.8237 16.596 10.5331C16.3053 10.2424 15.9111 10.0792 15.5 10.0792H13.95V9.30431C13.95 8.89331 13.7867 8.49914 13.496 8.20851C13.2053 7.91789 12.8111 7.75462 12.4 7.75462C11.9889 7.75462 11.5947 7.91789 11.304 8.20851C11.0133 8.49914 10.85 8.89331 10.85 9.30431V10.1566C9.90826 10.3478 9.07117 10.8821 8.50123 11.6556C7.93128 12.4292 7.66916 13.3868 7.76573 14.3427C7.86231 15.2987 8.3107 16.1846 9.02385 16.8286C9.737 17.4725 10.664 17.8286 11.625 17.8276H13.175C13.3805 17.8276 13.5777 17.9093 13.723 18.0546C13.8684 18.1999 13.95 18.397 13.95 18.6025C13.95 18.808 13.8684 19.0051 13.723 19.1504C13.5777 19.2957 13.3805 19.3773 13.175 19.3773H9.30001C8.88892 19.3773 8.49468 19.5406 8.20399 19.8312C7.91331 20.1218 7.75001 20.516 7.75001 20.927C7.75001 21.338 7.91331 21.7322 8.20399 22.0228C8.49468 22.3134 8.88892 22.4767 9.30001 22.4767H10.85V23.2515C10.85 23.6625 11.0133 24.0567 11.304 24.3473C11.5947 24.638 11.9889 24.8012 12.4 24.8012C12.8111 24.8012 13.2053 24.638 13.496 24.3473C13.7867 24.0567 13.95 23.6625 13.95 23.2515V22.3992C14.8917 22.208 15.7288 21.6738 16.2988 20.9002C16.8687 20.1267 17.1309 19.169 17.0343 18.2131C16.9377 17.2572 16.4893 16.3713 15.7762 15.7273C15.063 15.0833 14.136 14.7273 13.175 14.7282H11.625C11.4195 14.7282 11.2223 14.6466 11.077 14.5013C10.9317 14.356 10.85 14.1589 10.85 13.9534C10.85 13.7479 10.9317 13.5508 11.077 13.4055C11.2223 13.2602 11.4195 13.1785 11.625 13.1785ZM29.45 15.5031H24.8V1.55585C24.8011 1.28278 24.73 1.01427 24.5939 0.777512C24.4578 0.540754 24.2615 0.344154 24.025 0.207619C23.7894 0.0716056 23.5221 0 23.25 0C22.9779 0 22.7106 0.0716056 22.475 0.207619L17.825 2.87309L13.175 0.207619C12.9394 0.0716056 12.6721 0 12.4 0C12.1279 0 11.8606 0.0716056 11.625 0.207619L6.97501 2.87309L2.32501 0.207619C2.08938 0.0716056 1.82209 0 1.55001 0C1.27793 0 1.01064 0.0716056 0.775012 0.207619C0.538475 0.344154 0.342223 0.540754 0.206128 0.777512C0.0700333 1.01427 -0.00107211 1.28278 1.22185e-05 1.55585V26.3509C1.22185e-05 27.5839 0.489921 28.7664 1.36197 29.6383C2.23401 30.5102 3.41675 31 4.65001 31H26.35C27.5833 31 28.766 30.5102 29.638 29.6383C30.5101 28.7664 31 27.5839 31 26.3509V17.0528C31 16.6418 30.8367 16.2476 30.546 15.957C30.2553 15.6664 29.8611 15.5031 29.45 15.5031ZM4.65001 27.9006C4.23892 27.9006 3.84468 27.7373 3.554 27.4467C3.26331 27.1561 3.10001 26.7619 3.10001 26.3509V4.23682L6.20001 6.00347C6.43923 6.12839 6.70512 6.19363 6.97501 6.19363C7.2449 6.19363 7.51079 6.12839 7.75001 6.00347L12.4 3.338L17.05 6.00347C17.2892 6.12839 17.5551 6.19363 17.825 6.19363C18.0949 6.19363 18.3608 6.12839 18.6 6.00347L21.7 4.23682V26.3509C21.7042 26.8796 21.7985 27.4037 21.979 27.9006H4.65001ZM27.9 26.3509C27.9 26.7619 27.7367 27.1561 27.446 27.4467C27.1553 27.7373 26.7611 27.9006 26.35 27.9006C25.9389 27.9006 25.5447 27.7373 25.254 27.4467C24.9633 27.1561 24.8 26.7619 24.8 26.3509V18.6025H27.9V26.3509Z" fill="#6B30A4"/>
</svg>
