<svg width="23" height="22" viewBox="0 0 23 22" fill="none" xmlns="http://www.w3.org/2000/svg">
<path d="M22.6619 3.78465L19.213 0.336951C19.1064 0.229952 18.9797 0.145096 18.8402 0.0872682C18.7006 0.0294401 18.551 -0.000217866 18.4 1.20482e-06H4.6C4.44896 -0.000217866 4.29936 0.0294401 4.15982 0.0872682C4.02028 0.145096 3.89356 0.229952 3.78695 0.336951L0.338103 3.78465C0.230656 3.89123 0.145441 4.01808 0.0874021 4.15784C0.0293633 4.29761 -0.000344239 4.44751 3.00937e-06 4.59885V19.55C3.00937e-06 20.8184 1.03155 21.85 2.3 21.85H20.7C21.9684 21.85 23 20.8184 23 19.55V4.59885C23.0003 4.44751 22.9706 4.29761 22.9126 4.15784C22.8546 4.01808 22.7693 3.89123 22.6619 3.78465ZM5.0761 2.3H17.9239L19.0727 3.44885H3.92725L5.0761 2.3ZM2.3 19.55V5.74885H20.7L20.7023 19.55H2.3Z" fill="black"/>
<path d="M14.9498 11.5002H8.04976V9.2002H5.74976V13.8002H17.2498V9.2002H14.9498V11.5002Z" fill="black"/>
</svg>
