<svg width="21" height="18" viewBox="0 0 21 18" fill="none" xmlns="http://www.w3.org/2000/svg">
<path d="M19.0556 2.76923H15.75L14.9625 0.524176C14.9081 0.370553 14.8084 0.237763 14.677 0.143945C14.5456 0.0501265 14.389 -0.000144054 14.2285 3.10062e-07H6.77153C6.4434 3.10062e-07 6.14931 0.210165 6.03993 0.524176L5.25 2.76923H1.94444C0.870139 2.76923 0 3.6544 0 4.74725V16.022C0 17.1148 0.870139 18 1.94444 18H19.0556C20.1299 18 21 17.1148 21 16.022V4.74725C21 3.6544 20.1299 2.76923 19.0556 2.76923ZM10.5 14.044C8.35139 14.044 6.61111 12.2736 6.61111 10.0879C6.61111 7.9022 8.35139 6.13187 10.5 6.13187C12.6486 6.13187 14.3889 7.9022 14.3889 10.0879C14.3889 12.2736 12.6486 14.044 10.5 14.044ZM8.16667 10.0879C8.16667 10.7174 8.4125 11.3212 8.85008 11.7663C9.28767 12.2115 9.88116 12.4615 10.5 12.4615C11.1188 12.4615 11.7123 12.2115 12.1499 11.7663C12.5875 11.3212 12.8333 10.7174 12.8333 10.0879C12.8333 9.45839 12.5875 8.85465 12.1499 8.4095C11.7123 7.96436 11.1188 7.71429 10.5 7.71429C9.88116 7.71429 9.28767 7.96436 8.85008 8.4095C8.4125 8.85465 8.16667 9.45839 8.16667 10.0879Z" fill="#E15C45"/>
</svg>
