<svg width="17" height="19" viewBox="0 0 17 19" fill="none" xmlns="http://www.w3.org/2000/svg">
<path d="M5.13036 0.656465C5.33527 0.254125 5.75647 0 6.21563 0H10.7844C11.2435 0 11.6647 0.254125 11.8696 0.656465L12.1429 1.1875H15.7857C16.4574 1.1875 17 1.71928 17 2.375C17 3.03072 16.4574 3.5625 15.7857 3.5625H1.21429C0.543772 3.5625 0 3.03072 0 2.375C0 1.71928 0.543772 1.1875 1.21429 1.1875H4.85714L5.13036 0.656465ZM14.9812 17.2967C14.9205 18.2689 14.1275 19 13.1636 19H3.83638C2.87444 19 2.07833 18.2689 2.01837 17.2967L1.18013 4.75H15.7857L14.9812 17.2967Z" fill="black"/>
</svg>
