<svg width="23" height="23" viewBox="0 0 23 23" fill="none" xmlns="http://www.w3.org/2000/svg">
<path d="M22.1734 7.32227C21.0558 6.4409 20.1295 5.73338 14.7928 1.85977C14.0471 1.31217 12.5646 0 11.518 0H11.482C10.4354 0 8.95293 1.31217 8.20273 1.85887C2.86602 5.73338 1.94062 6.40047 0.82207 7.32137C0.303223 7.72656 0 8.35547 0 9.02031V20.8438C0 22.0342 0.965371 23 2.15625 23H20.8438C22.0346 23 23 22.0346 23 20.8842V9.02031C23 8.35547 22.699 7.72656 22.1734 7.32227ZM13.6203 16.5088C12.9869 17.0029 12.2412 17.25 11.5 17.25C10.7588 17.25 10.0149 17.0036 9.38148 16.5101L2.875 11.4506V9.36621C3.82555 8.62096 4.96297 7.7643 9.90078 4.17773C10.0436 4.07316 10.2103 3.94472 10.394 3.8025C10.642 3.61352 11.1316 3.23303 11.5 3.00258C11.8687 3.23307 12.3598 3.61352 12.6055 3.80398C12.7893 3.94621 12.956 4.07473 13.1064 4.18483C18.0092 7.74902 19.1637 8.61152 20.125 9.36621V11.447L13.6203 16.5088Z" fill="black"/>
</svg>
